<?xml version="1.0" standalone="no"?>
<!DOCTYPE svg PUBLIC "-//W3C//DTD SVG 20010904//EN"
 "http://www.w3.org/TR/2001/REC-SVG-20010904/DTD/svg10.dtd">
<svg version="1.0" xmlns="http://www.w3.org/2000/svg"
 width="512.000000pt" height="512.000000pt" viewBox="0 0 512.000000 512.000000"
 preserveAspectRatio="xMidYMid meet">

<g transform="translate(0.000000,512.000000) scale(0.100000,-0.100000)"
fill="#000000" stroke="none">
<path d="M795 4810 c-95 -25 -138 -44 -217 -96 -122 -81 -201 -186 -255 -339
l-28 -80 0 -1730 c0 -1945 -7 -1766 76 -1925 77 -148 212 -263 372 -317 l82
-28 1702 -3 c1898 -3 1777 -7 1928 67 178 87 294 223 353 414 15 47 17 222 19
1754 3 1480 1 1712 -12 1775 -19 93 -90 237 -151 306 -58 67 -168 145 -243
173 -135 50 -82 49 -1879 48 -1603 0 -1680 -1 -1747 -19z m3475 -296 c101 -30
180 -99 227 -199 l28 -60 3 -1675 c2 -1825 5 -1729 -53 -1819 -25 -40 -85 -98
-126 -124 -81 -49 -10 -47 -1814 -45 l-1680 3 -50 25 c-57 28 -135 97 -166
147 -50 81 -49 20 -49 1799 0 1522 1 1665 17 1710 39 116 127 203 239 238 43
13 265 15 1710 15 1487 1 1666 -1 1714 -15z"/>
<path d="M2479 3727 c-70 -46 -69 -39 -69 -554 l0 -463 -460 0 c-505 0 -503 0
-553 -59 -55 -66 -28 -183 53 -223 32 -16 77 -18 498 -18 l462 0 0 -462 c0
-421 2 -466 18 -498 53 -107 211 -107 264 0 16 32 18 77 18 498 l0 462 463 0
c420 0 465 2 497 18 107 53 107 211 0 264 -32 16 -77 18 -497 18 l-463 0 0
460 c0 508 0 506 -62 554 -46 35 -120 36 -169 3z"/>
</g>
</svg>
